{
    "asset" : {
        "generator" : "Khronos glTF Blender I/O v1.6.16",
        "version" : "2.0"
    },
    "scene" : 0,
    "scenes" : [
        {
            "name" : "Scene",
            "nodes" : [
                0
            ]
        }
    ],
    "nodes" : [
        {
            "mesh" : 0,
            "name" : "Cube",
            "scale" : [
                1.9524576663970947,
                3.0154619216918945,
                0.07089368253946304
            ]
        }
    ],
    "materials" : [
        {
            "doubleSided" : true,
            "name" : "Material.001",
            "pbrMetallicRoughness" : {
                "baseColorFactor" : [
                    0.31455302238464355,
                    0.04018709063529968,
                    0.8000000715255737,
                    1
                ],
                "metallicFactor" : 0,
                "roughnessFactor" : 0.5
            }
        }
    ],
    "meshes" : [
        {
            "name" : "Cube.002",
            "primitives" : [
                {
                    "attributes" : {
                        "POSITION" : 0,
                        "NORMAL" : 1,
                        "TEXCOORD_0" : 2
                    },
                    "indices" : 3,
                    "material" : 0
                }
            ]
        }
    ],
    "accessors" : [
        {
            "bufferView" : 0,
            "componentType" : 5126,
            "count" : 4760,
            "max" : [
                0.9999997019767761,
                0.9999997615814209,
                1.0000019073486328
            ],
            "min" : [
                -1.0000017881393433,
                -1.0000019073486328,
                -0.9999997615814209
            ],
            "type" : "VEC3"
        },
        {
            "bufferView" : 1,
            "componentType" : 5126,
            "count" : 4760,
            "type" : "VEC3"
        },
        {
            "bufferView" : 2,
            "componentType" : 5126,
            "count" : 4760,
            "type" : "VEC2"
        },
        {
            "bufferView" : 3,
            "componentType" : 5123,
            "count" : 9456,
            "type" : "SCALAR"
        }
    ],
    "bufferViews" : [
        {
            "buffer" : 0,
            "byteLength" : 57120,
            "byteOffset" : 0
        },
        {
            "buffer" : 0,
            "byteLength" : 57120,
            "byteOffset" : 57120
        },
        {
            "buffer" : 0,
            "byteLength" : 38080,
            "byteOffset" : 114240
        },
        {
            "buffer" : 0,
            "byteLength" : 18912,
            "byteOffset" : 152320
        }
    ],
    "buffers" : [
        {
            "byteLength" : 171232,
            "uri" : "data:application/octet-stream;base64,"
        }
    ]
}
